<?xml version="1.0" encoding="UTF-8" standalone="no"?>
<!-- Created with Inkscape (http://www.inkscape.org/) -->

<svg
   xmlns:dc="http://purl.org/dc/elements/1.1/"
   xmlns:cc="http://creativecommons.org/ns#"
   xmlns:rdf="http://www.w3.org/1999/02/22-rdf-syntax-ns#"
   xmlns:svg="http://www.w3.org/2000/svg"
   xmlns="http://www.w3.org/2000/svg"
   xmlns:sodipodi="http://sodipodi.sourceforge.net/DTD/sodipodi-0.dtd"
   xmlns:inkscape="http://www.inkscape.org/namespaces/inkscape"
   width="512"
   height="512"
   viewBox="0 0 135.46667 135.46667"
   version="1.1"
   id="svg8"
   inkscape:version="0.92.5 (2060ec1f9f, 2020-04-08)"
   sodipodi:docname="big-data-logo.svg"
   inkscape:export-filename="/home/paul/GitWork/Courses/Big-Data/source/_static/logo.png"
   inkscape:export-xdpi="96"
   inkscape:export-ydpi="96">
  <defs
     id="defs2" />
  <sodipodi:namedview
     id="base"
     pagecolor="#ffffff"
     bordercolor="#666666"
     borderopacity="1.0"
     inkscape:pageopacity="0.0"
     inkscape:pageshadow="2"
     inkscape:zoom="0.7"
     inkscape:cx="546.30859"
     inkscape:cy="96.574842"
     inkscape:document-units="mm"
     inkscape:current-layer="layer1"
     showgrid="true"
     units="px"
     width="512px"
     showguides="false"
     inkscape:window-width="1366"
     inkscape:window-height="704"
     inkscape:window-x="74"
     inkscape:window-y="900"
     inkscape:window-maximized="1">
    <inkscape:grid
       type="xygrid"
       id="grid4518" />
  </sodipodi:namedview>
  <metadata
     id="metadata5">
    <rdf:RDF>
      <cc:Work
         rdf:about="">
        <dc:format>image/svg+xml</dc:format>
        <dc:type
           rdf:resource="http://purl.org/dc/dcmitype/StillImage" />
        <dc:title />
      </cc:Work>
    </rdf:RDF>
  </metadata>
  <g
     inkscape:label="Layer 1"
     inkscape:groupmode="layer"
     id="layer1"
     transform="translate(0,-161.53333)">
    <path
       style="opacity:1;fill:#00a5cb;fill-opacity:1;stroke:none;stroke-width:0.79374999;stroke-linecap:round;stroke-miterlimit:4;stroke-dasharray:none;stroke-opacity:1"
       d="m 70.908333,212.33333 c -24.84131,0 -44.97916,4.73832 -44.97916,10.58333 v 49.52101 c -0.20162,0.27183 -0.35797,-1.0421 -0.46871,-0.76739 l 36.45204,-27.58695 10.09654,-31.73191 c -0.71896,-0.0101 -0.38051,-0.0161 -1.10071,-0.0181 z m 37.246817,4.84725 -33.542647,38.01525 -48.0999,21.62297 c 4.01837,4.99502 22.03393,8.08293 43.63971,8.08581 22.33767,-0.007 42.543797,-3.86927 45.735187,-9.07128 v -1.32291 -51.59376 c -0.018,-2.25546 -2.03964,-3.92142 -7.73235,-5.73608 z"
       id="path945-53"
       inkscape:connector-curvature="0"
       sodipodi:nodetypes="cscccccccccccccc" />
    <path
       style="opacity:1;fill:#00a5cb;fill-opacity:1;stroke:none;stroke-width:0.79374999;stroke-linecap:round;stroke-miterlimit:4;stroke-dasharray:none;stroke-opacity:1"
       d="m 314.85416,207.04166 c -24.8413,0 -44.97916,4.73832 -44.97916,10.58333 V 267.146 c -0.20161,0.27183 -0.35797,0.54541 -0.46871,0.82011 l 37.51037,-29.17445 10.09655,-31.73191 c -0.71896,-0.0101 -1.43885,-0.0161 -2.15905,-0.0181 z m 36.18849,4.31808 -33.54265,38.01525 -47.57074,21.62297 c 4.01837,4.99502 22.5631,8.6121 44.16888,8.61498 22.33768,-0.007 42.5438,-3.86927 45.73519,-9.07128 v -1.32291 -51.59376 c -0.018,-2.25546 -3.09797,-4.45059 -8.79068,-6.26525 z"
       id="path945"
       inkscape:connector-curvature="0"
       sodipodi:nodetypes="csccccccccccccc" />
    <ellipse
       style="opacity:0.76700003;fill:#005265;fill-opacity:1;stroke:none;stroke-width:0.79374999;stroke-linecap:round;stroke-miterlimit:4;stroke-dasharray:none;stroke-opacity:1"
       id="path945-7"
       cx="291.41965"
       cy="150.72321"
       rx="44.979168"
       ry="10.583333" />
    <path
       inkscape:connector-curvature="0"
       style="opacity:0.76700003;fill:#00a5cb;fill-opacity:1;stroke:none;stroke-width:0.79374999;stroke-linecap:round;stroke-miterlimit:4;stroke-dasharray:none;stroke-opacity:1"
       d="M 193.14583,222.91666 A 44.979167,10.583333 0 0 0 148.16667,233.5 v 49.52101 a 44.979167,10.583333 0 0 0 -0.75603,1.8836 44.979167,10.583333 0 0 0 44.97917,10.58333 44.979167,10.583333 0 0 0 44.46188,-9.07128 H 238.125 V 233.5 a 44.979167,10.583333 0 0 0 -44.97917,-10.58334 z"
       id="path945-5" />
    <ellipse
       style="opacity:0.76700003;fill:#005265;fill-opacity:1;stroke:none;stroke-width:0.79374999;stroke-linecap:round;stroke-miterlimit:4;stroke-dasharray:none;stroke-opacity:1"
       id="path945-7-3"
       cx="193.5238"
       cy="233.5"
       rx="44.979168"
       ry="10.583333" />
    <path
       style="opacity:1;fill:#00d358;fill-opacity:1;stroke:none;stroke-width:2.2168231;stroke-linecap:round;stroke-miterlimit:4;stroke-dasharray:none;stroke-opacity:1"
       d="M 283.10417,172.64583 301.625,114.4375 338.66667,106.5 333.375,138.25 293.6875,183.22916 235.47917,209.6875 Z"
       id="rect927-5"
       inkscape:connector-curvature="0"
       sodipodi:nodetypes="ccccccc" />
    <path
       style="opacity:1;fill:#005265;fill-opacity:1;stroke:none;stroke-width:0.79374999;stroke-linecap:round;stroke-miterlimit:4;stroke-dasharray:none;stroke-opacity:1"
       d="m 71.008586,212.17416 c -24.841308,0 -44.979166,4.73832 -44.979166,10.58333 0.005,5.41709 16.335501,9.95878 39.232746,10.52339 l 6.708119,-21.08295 c -0.672502,-0.0115 -0.287684,-0.0194 -0.961699,-0.0238 z m 36.941424,4.3925 -12.954773,15.28175 c 13.650403,-1.90307 20.971323,-5.3576 20.992523,-9.09092 -0.02,-2.22415 -2.48833,-4.3903 -8.03775,-6.19083 z"
       id="path945-7-36"
       inkscape:connector-curvature="0"
       sodipodi:nodetypes="cccccccccc" />
    <path
       style="opacity:0.847;fill:#ff6600;fill-opacity:1;stroke:none;stroke-width:2.2168231;stroke-linecap:round;stroke-miterlimit:4;stroke-dasharray:none;stroke-opacity:1"
       d="m 63.500006,245.14167 18.520827,-59.26667 36.512497,-8.99584 -5.29167,30.69167 -40.216658,46.56666 -57.679163,26.45835 z"
       id="rect927-5-5"
       inkscape:connector-curvature="0"
       sodipodi:nodetypes="ccccccc" />
  </g>
</svg>
